<svg width="31.001953" height="6.660950" viewBox="0 0 31.002 6.66095" fill="none" xmlns="http://www.w3.org/2000/svg" xmlns:xlink="http://www.w3.org/1999/xlink">
	<desc>
			Created with Pixso.
	</desc>
	<defs/>
	<path id="Vector 1" d="M0.5 2.83047L30.5 2.83047L30.5 3.83047L0.5 3.83047L0.5 2.83047ZM0.519531 3.81047L0.5 3.83047C0.219727 3.83047 0 3.61047 0 3.33047C0 3.05048 0.219727 2.83047 0.5 2.83047L0.519531 2.85048L0.519531 3.81047ZM29.793 3.33047L27.3184 0.855606C27.1201 0.657608 27.1201 0.346481 27.3184 0.148499C27.5156 -0.0494995 27.8271 -0.0494995 28.0254 0.148499L30.8535 2.97693C31.0518 3.17491 31.0518 3.48604 30.8535 3.68402L28.0254 6.51245C27.8271 6.71045 27.5156 6.71045 27.3184 6.51245C27.1201 6.31447 27.1201 6.00334 27.3184 5.80534L29.793 3.33047Z" fill="#FFFFFF" fill-opacity="1.000000" fill-rule="evenodd"/>
</svg>
