<svg width="60.000000" height="60.000000" viewBox="0 0 60 60" fill="none" xmlns="http://www.w3.org/2000/svg" xmlns:xlink="http://www.w3.org/1999/xlink">
	<desc>
			Created with Pixso.
	</desc>
	<defs>
		<clipPath id="clip1418_161">
			<rect id="Social Icons" width="24.000000" height="24.000000" transform="translate(18.000000 18.000000)" fill="white" fill-opacity="0"/>
		</clipPath>
		<clipPath id="clip1412_102">
			<rect id="Frame 4" rx="2.000000" width="60.000000" height="60.000000" fill="white" fill-opacity="0"/>
		</clipPath>
	</defs>
	<rect id="Frame 4" rx="2.000000" width="60.000000" height="60.000000" fill="#D9D9D9" fill-opacity="0"/>
	<g clip-path="url(#clip1412_102)">
		<rect id="Social Icons" width="24.000000" height="24.000000" transform="translate(18.000000 18.000000)" fill="#FFFFFF" fill-opacity="0"/>
		<g clip-path="url(#clip1418_161)">
			<path id="Vector" d="M30 20.1609C33.2061 20.1609 33.5859 20.175 34.8467 20.2313C36.0186 20.2828 36.6514 20.4797 37.0732 20.6437C37.6313 20.8594 38.0342 21.1219 38.4517 21.5391C38.8735 21.9609 39.1313 22.3594 39.3467 22.9172C39.5107 23.3391 39.708 23.9766 39.7593 25.1437C39.8154 26.4094 39.8296 26.7891 39.8296 29.9906C39.8296 33.1969 39.8154 33.5765 39.7593 34.8375C39.708 36.0094 39.5107 36.6422 39.3467 37.0641C39.1313 37.6219 38.8687 38.025 38.4517 38.4422C38.0298 38.8641 37.6313 39.1219 37.0732 39.3375C36.6514 39.5016 36.0142 39.6984 34.8467 39.75C33.5811 39.8063 33.2017 39.8203 30 39.8203C26.7939 39.8203 26.4141 39.8063 25.1533 39.75C23.9814 39.6984 23.3486 39.5016 22.9268 39.3375C22.3687 39.1219 21.9658 38.8594 21.5483 38.4422C21.1265 38.0203 20.8687 37.6219 20.6533 37.0641C20.4893 36.6422 20.292 36.0047 20.2407 34.8375C20.1846 33.5719 20.1704 33.1922 20.1704 29.9906C20.1704 26.7844 20.1846 26.4047 20.2407 25.1437C20.292 23.9719 20.4893 23.3391 20.6533 22.9172C20.8687 22.3594 21.1313 21.9562 21.5483 21.5391C21.9702 21.1172 22.3687 20.8594 22.9268 20.6437C23.3486 20.4797 23.9858 20.2828 25.1533 20.2313C26.4141 20.175 26.7939 20.1609 30 20.1609ZM30 18C26.7422 18 26.3345 18.014 25.0547 18.0703C23.7798 18.1266 22.9033 18.3328 22.1436 18.6281C21.3516 18.9375 20.6812 19.3453 20.0156 20.0156C19.3452 20.6813 18.9375 21.3516 18.6279 22.139C18.333 22.9031 18.1265 23.775 18.0703 25.05C18.0142 26.3344 18 26.7422 18 30C18 33.2578 18.0142 33.6656 18.0703 34.9453C18.1265 36.2203 18.333 37.0969 18.6279 37.8563C18.9375 38.6484 19.3452 39.3187 20.0156 39.9844C20.6812 40.65 21.3516 41.0625 22.1392 41.3672C22.9033 41.6625 23.7749 41.8688 25.0498 41.925C26.3296 41.9813 26.7373 41.9953 29.9951 41.9953C33.2529 41.9953 33.6611 41.9813 34.9404 41.925C36.2158 41.8688 37.0923 41.6625 37.8516 41.3672C38.6392 41.0625 39.3096 40.65 39.9751 39.9844C40.6406 39.3187 41.0532 38.6484 41.3579 37.861C41.6533 37.0969 41.8594 36.225 41.9155 34.95C41.9717 33.6703 41.9858 33.2625 41.9858 30.0047C41.9858 26.7469 41.9717 26.3391 41.9155 25.0594C41.8594 23.7844 41.6533 22.9078 41.3579 22.1484C41.0625 21.3516 40.6548 20.6813 39.9844 20.0156C39.3188 19.35 38.6484 18.9375 37.8608 18.6328C37.0967 18.3375 36.2251 18.1312 34.9502 18.075C33.6655 18.014 33.2578 18 30 18Z" fill="#000000" fill-opacity="1.000000" fill-rule="nonzero"/>
			<path id="Vector" d="M30 23.8359C26.5967 23.8359 23.8359 26.5969 23.8359 30C23.8359 33.4031 26.5967 36.1641 30 36.1641C33.4033 36.1641 36.1641 33.4031 36.1641 30C36.1641 26.5969 33.4033 23.8359 30 23.8359ZM30 33.9984C27.792 33.9984 26.0015 32.2078 26.0015 30C26.0015 27.7922 27.792 26.0016 30 26.0016C32.208 26.0016 33.9985 27.7922 33.9985 30C33.9985 32.2078 32.208 33.9984 30 33.9984Z" fill="#000000" fill-opacity="1.000000" fill-rule="nonzero"/>
			<path id="Vector" d="M37.8467 23.5922C37.8467 24.389 37.2002 25.0312 36.4077 25.0312C35.6108 25.0312 34.9688 24.3843 34.9688 23.5922C34.9688 22.7953 35.6157 22.1531 36.4077 22.1531C37.2002 22.1531 37.8467 22.7999 37.8467 23.5922Z" fill="#000000" fill-opacity="1.000000" fill-rule="nonzero"/>
		</g>
	</g>
</svg>
