<svg width="60.000000" height="60.000000" viewBox="0 0 60 60" fill="none" xmlns="http://www.w3.org/2000/svg" xmlns:xlink="http://www.w3.org/1999/xlink">
	<desc>
			Created with Pixso.
	</desc>
	<defs>
		<clipPath id="clip1418_159">
			<rect id="Social Icons" width="24.000000" height="24.000000" transform="translate(18.000000 18.000000)" fill="white" fill-opacity="0"/>
		</clipPath>
		<clipPath id="clip1412_104">
			<rect id="Frame 5" rx="2.000000" width="60.000000" height="60.000000" fill="white" fill-opacity="0"/>
		</clipPath>
	</defs>
	<rect id="Frame 5" rx="2.000000" width="60.000000" height="60.000000" fill="#D9D9D9" fill-opacity="0"/>
	<g clip-path="url(#clip1412_104)">
		<rect id="Social Icons" width="24.000000" height="24.000000" transform="translate(18.000000 18.000000)" fill="#FFFFFF" fill-opacity="0"/>
		<g clip-path="url(#clip1418_159)">
			<path id="Vector" d="M42 30C42 36.6274 36.6274 42 30 42C23.3726 42 18 36.6274 18 30C18 23.3726 23.3726 18 30 18C36.6274 18 42 23.3726 42 30ZM30.4302 26.8589C29.2627 27.3444 26.9302 28.3492 23.4321 29.8734C22.8638 30.0992 22.5664 30.3202 22.5391 30.5363C22.4932 30.9015 22.9507 31.0453 23.5732 31.2411C23.6582 31.2678 23.7461 31.2953 23.8359 31.3246C24.4487 31.5237 25.2729 31.7568 25.7012 31.7661C26.0898 31.7744 26.5239 31.6142 27.0024 31.2853C30.271 29.079 31.9585 27.9638 32.0645 27.9398C32.1392 27.9228 32.2427 27.9015 32.313 27.9639C32.3828 28.0262 32.376 28.1443 32.3687 28.176C32.3232 28.3691 30.5283 30.0381 29.5991 30.9018C29.3096 31.171 29.104 31.362 29.062 31.4056C28.9678 31.5034 28.8721 31.5958 28.7798 31.6846C28.2109 32.2333 27.7837 32.6448 28.8037 33.3168C29.2935 33.6397 29.6855 33.9067 30.0771 34.1732C30.5044 34.4641 30.9302 34.7543 31.4814 35.1157C31.6221 35.2078 31.7563 35.3034 31.8867 35.3965C32.3843 35.751 32.8306 36.0694 33.3828 36.0186C33.7031 35.9891 34.0347 35.6876 34.2026 34.7883C34.6001 32.6631 35.3818 28.0585 35.562 26.1609C35.5781 25.9948 35.5581 25.782 35.542 25.6886C35.5264 25.5952 35.4927 25.4621 35.3716 25.3636C35.2275 25.2469 35.0059 25.2224 34.9062 25.2241C34.4551 25.2321 33.7627 25.4728 30.4302 26.8589Z" fill="#000000" fill-opacity="1.000000" fill-rule="evenodd"/>
		</g>
	</g>
</svg>
