<svg width="148.000000" height="27.000000" viewBox="0 0 148 27" fill="none" xmlns="http://www.w3.org/2000/svg" xmlns:xlink="http://www.w3.org/1999/xlink">
	<desc>
			Created with Pixso.
	</desc>
	<defs/>
	<path id="Vector" d="M129.94 22.14C129.046 22.14 128.187 22.0267 127.36 21.8C126.546 21.56 125.9 21.2733 125.42 20.94L126.38 19.04C126.86 19.3467 127.433 19.6 128.1 19.8C128.767 20 129.433 20.1 130.1 20.1C130.887 20.1 131.453 19.9933 131.8 19.78C132.16 19.5667 132.34 19.28 132.34 18.92C132.34 18.6267 132.22 18.4067 131.98 18.26C131.74 18.1 131.427 17.98 131.04 17.9C130.653 17.82 130.22 17.7467 129.74 17.68C129.273 17.6133 128.8 17.5267 128.32 17.42C127.853 17.3 127.427 17.1334 127.04 16.92C126.653 16.6934 126.34 16.3934 126.1 16.02C125.86 15.6467 125.74 15.1533 125.74 14.54C125.74 13.86 125.933 13.2733 126.32 12.78C126.707 12.2733 127.247 11.8867 127.94 11.62C128.646 11.34 129.48 11.2 130.44 11.2C131.16 11.2 131.887 11.28 132.62 11.44C133.353 11.6 133.96 11.8267 134.44 12.12L133.48 14.02C132.973 13.7133 132.46 13.5067 131.94 13.4C131.433 13.28 130.927 13.22 130.42 13.22C129.66 13.22 129.093 13.3334 128.72 13.56C128.36 13.7867 128.18 14.0734 128.18 14.42C128.18 14.74 128.3 14.98 128.54 15.14C128.78 15.3 129.093 15.4267 129.48 15.52C129.867 15.6133 130.293 15.6934 130.76 15.76C131.24 15.8134 131.713 15.9 132.18 16.02C132.646 16.14 133.073 16.3067 133.46 16.52C133.86 16.72 134.18 17.0067 134.42 17.38C134.66 17.7534 134.78 18.24 134.78 18.84C134.78 19.5067 134.58 20.0867 134.18 20.58C133.793 21.0734 133.24 21.46 132.52 21.74C131.8 22.0067 130.94 22.14 129.94 22.14Z" fill="#000000" fill-opacity="1.000000" fill-rule="nonzero"/>
	<path id="Vector" d="M117.429 22.14C116.403 22.14 115.476 21.9133 114.649 21.46C113.836 20.9933 113.196 20.3533 112.729 19.54C112.263 18.7266 112.029 17.7667 112.029 16.66C112.029 15.5533 112.263 14.5933 112.729 13.78C113.196 12.9666 113.836 12.3333 114.649 11.8799C115.476 11.4266 116.403 11.2 117.429 11.2C118.323 11.2 119.123 11.4 119.829 11.8C120.536 12.1866 121.096 12.78 121.509 13.58C121.923 14.3799 122.129 15.4066 122.129 16.66C122.129 17.9 121.929 18.9266 121.529 19.74C121.129 20.54 120.576 21.14 119.869 21.54C119.163 21.94 118.349 22.14 117.429 22.14ZM117.729 20C118.329 20 118.863 19.8666 119.329 19.6C119.809 19.3333 120.189 18.9467 120.469 18.44C120.763 17.9333 120.909 17.34 120.909 16.66C120.909 15.9666 120.763 15.3733 120.469 14.88C120.189 14.3733 119.809 13.9866 119.329 13.72C118.863 13.4533 118.329 13.3199 117.729 13.3199C117.129 13.3199 116.589 13.4533 116.109 13.72C115.643 13.9866 115.263 14.3733 114.969 14.88C114.689 15.3733 114.549 15.9666 114.549 16.66C114.549 17.34 114.689 17.9333 114.969 18.44C115.263 18.9467 115.643 19.3333 116.109 19.6C116.589 19.8666 117.129 20 117.729 20ZM120.969 22L120.969 19.48L121.069 16.64L120.869 13.8L120.869 7.15997L123.349 7.15997L123.349 22L120.969 22Z" fill="#000000" fill-opacity="1.000000" fill-rule="nonzero"/>
	<path id="Vector" d="M104.707 22L104.707 11.32L107.086 11.32L107.086 14.26L106.807 13.4C107.126 12.68 107.626 12.1334 108.307 11.76C109 11.3867 109.86 11.2 110.887 11.2L110.887 13.58C110.78 13.5533 110.68 13.54 110.586 13.54C110.493 13.5267 110.4 13.52 110.307 13.52C109.36 13.52 108.606 13.8 108.046 14.36C107.486 14.9067 107.207 15.7267 107.207 16.82L107.207 22L104.707 22Z" fill="#000000" fill-opacity="1.000000" fill-rule="nonzero"/>
	<path id="Vector" d="M99.1377 22L99.1377 19.84L98.998 19.38L98.998 15.6C98.998 14.8667 98.7778 14.3 98.3379 13.9C97.8979 13.4867 97.231 13.28 96.3379 13.28C95.7378 13.28 95.1445 13.3734 94.5576 13.56C93.9844 13.7467 93.498 14.0067 93.0977 14.34L92.1177 12.52C92.6914 12.08 93.3711 11.7534 94.1577 11.54C94.958 11.3134 95.7847 11.2 96.6377 11.2C98.1846 11.2 99.3779 11.5734 100.218 12.32C101.071 13.0533 101.498 14.1934 101.498 15.74L101.498 22L99.1377 22ZM95.7778 22.14C94.978 22.14 94.2778 22.0067 93.6777 21.74C93.0776 21.46 92.6113 21.08 92.2778 20.6C91.958 20.1067 91.7979 19.5533 91.7979 18.94C91.7979 18.34 91.938 17.8 92.2178 17.32C92.5112 16.84 92.9844 16.46 93.6377 16.18C94.291 15.9 95.1577 15.76 96.2378 15.76L99.3379 15.76L99.3379 17.42L96.418 17.42C95.5645 17.42 94.9912 17.56 94.6978 17.84C94.4043 18.1067 94.2578 18.44 94.2578 18.84C94.2578 19.2933 94.438 19.6533 94.7979 19.92C95.1577 20.1867 95.6577 20.32 96.2979 20.32C96.9111 20.32 97.458 20.18 97.938 19.9C98.4312 19.62 98.7847 19.2067 98.998 18.66L99.418 20.16C99.1777 20.7867 98.7446 21.2734 98.1177 21.62C97.5044 21.9667 96.7246 22.14 95.7778 22.14Z" fill="#000000" fill-opacity="1.000000" fill-rule="nonzero"/>
	<path id="Vector" d="M81.0332 22L81.0332 20.42L87.6133 12.46L88.0732 13.32L81.1533 13.32L81.1533 11.32L90.0732 11.32L90.0732 12.9L83.4932 20.86L82.9932 20L90.2534 20L90.2534 22L81.0332 22Z" fill="#000000" fill-opacity="1.000000" fill-rule="nonzero"/>
	<path id="Vector" d="M76.1318 22L76.1318 11.32L78.6318 11.32L78.6318 22L76.1318 22ZM77.3921 9.56C76.9253 9.56 76.5386 9.41333 76.2319 9.12C75.9385 8.82666 75.792 8.47333 75.792 8.06C75.792 7.6333 75.9385 7.27997 76.2319 7C76.5386 6.70667 76.9253 6.56 77.3921 6.56C77.8589 6.56 78.2388 6.70001 78.5322 6.97998C78.8389 7.24664 78.9922 7.58667 78.9922 8C78.9922 8.44 78.8452 8.81335 78.5518 9.12C78.2588 9.41333 77.8721 9.56 77.3921 9.56Z" fill="#000000" fill-opacity="1.000000" fill-rule="nonzero"/>
	<path id="Vector" d="M56.9966 22L52.3564 8L55.0566 8L59.1963 20.66L57.8564 20.66L62.1562 8L64.5566 8L68.7363 20.66L67.4365 20.66L71.6763 8L74.1562 8L69.5166 22L66.7563 22L62.9365 10.58L63.6562 10.58L59.7764 22L56.9966 22Z" fill="#000000" fill-opacity="1.000000" fill-rule="nonzero"/>
	<path id="Vector" d="M40.1533 22.08C39.2329 22.08 38.3999 21.8666 37.6533 21.44C36.9199 21.0133 36.333 20.4 35.8931 19.6C35.4663 18.8 35.2529 17.86 35.2529 16.78C35.2529 15.6733 35.4663 14.7266 35.8931 13.94C36.333 13.1533 36.9199 12.5466 37.6533 12.12C38.3999 11.6933 39.2329 11.48 40.1533 11.48C41.1396 11.48 42.0195 11.7067 42.793 12.16C43.5796 12.6 44.1929 13.22 44.6333 14.02C45.0864 14.8066 45.313 15.7266 45.313 16.78C45.313 17.8199 45.0864 18.74 44.6333 19.54C44.1929 20.34 43.5796 20.9666 42.793 21.42C42.0195 21.86 41.1396 22.08 40.1533 22.08ZM34.9131 22L34.9131 7.15997L35.9131 7.15997L35.9131 14.94L35.7129 16.7599L35.873 18.58L35.873 22L34.9131 22ZM40.0933 21.18C40.8931 21.18 41.6133 21 42.2529 20.64C42.8931 20.2667 43.3931 19.7466 43.7529 19.08C44.1265 18.4133 44.313 17.6467 44.313 16.78C44.313 15.9 44.1265 15.1333 43.7529 14.48C43.3931 13.8133 42.8931 13.3 42.2529 12.94C41.6133 12.5667 40.8931 12.3799 40.0933 12.3799C39.293 12.3799 38.5732 12.5667 37.9331 12.94C37.3066 13.3 36.8066 13.8133 36.4331 14.48C36.0732 15.1333 35.8931 15.9 35.8931 16.78C35.8931 17.6467 36.0732 18.4133 36.4331 19.08C36.8066 19.7466 37.3066 20.2667 37.9331 20.64C38.5732 21 39.293 21.18 40.0933 21.18Z" fill="#000000" fill-opacity="1.000000" fill-rule="nonzero"/>
	<path id="Vector" d="M27.2192 22.08C26.166 22.08 25.2329 21.8533 24.4194 21.4C23.6191 20.9467 22.9858 20.32 22.5195 19.52C22.0659 18.72 21.8394 17.8066 21.8394 16.78C21.8394 15.74 22.0527 14.8267 22.4795 14.04C22.9194 13.24 23.5195 12.6133 24.2793 12.16C25.0396 11.7067 25.8926 11.48 26.8394 11.48C27.7861 11.48 28.6328 11.7 29.3794 12.14C30.1392 12.58 30.7329 13.2 31.1592 14C31.5991 14.7866 31.8193 15.7 31.8193 16.74C31.8193 16.78 31.8125 16.8267 31.7993 16.88C31.7993 16.92 31.7993 16.9667 31.7993 17.02L22.5796 17.02L22.5796 16.24L31.2593 16.24L30.8594 16.62C30.8726 15.8066 30.6992 15.08 30.3394 14.44C29.9927 13.7866 29.5195 13.28 28.9194 12.92C28.3193 12.5466 27.626 12.36 26.8394 12.36C26.0659 12.36 25.3726 12.5466 24.7593 12.92C24.1592 13.28 23.686 13.7866 23.3394 14.44C22.9927 15.08 22.8193 15.8133 22.8193 16.64L22.8193 16.82C22.8193 17.6733 23.0059 18.4333 23.3794 19.1C23.7661 19.7533 24.2925 20.2667 24.9595 20.64C25.626 21 26.3862 21.18 27.2393 21.18C27.9062 21.18 28.5259 21.06 29.0991 20.82C29.686 20.58 30.1792 20.2133 30.5796 19.72L31.1592 20.38C30.7061 20.94 30.1328 21.3666 29.4395 21.66C28.7593 21.94 28.0195 22.08 27.2192 22.08Z" fill="#000000" fill-opacity="1.000000" fill-rule="nonzero"/>
	<path id="Vector" d="M5.55957 22L0.799805 8L1.87988 8L6.3999 21.38L5.85986 21.38L10.52 8L11.5 8L16.1196 21.38L15.5996 21.38L20.1597 8L21.1597 8L16.4199 22L15.3398 22L10.8599 9.06L11.1196 9.06L6.63965 22L5.55957 22Z" fill="#000000" fill-opacity="1.000000" fill-rule="nonzero"/>
	<path id="Star 1" d="M141.5 0L139.745 4.74438L135 6.5L139.745 8.25562L141.5 13L143.255 8.25562L148 6.5L143.255 4.74438L141.5 0Z" fill="#000000" fill-opacity="1.000000" fill-rule="evenodd"/>
	<path id="Star 2" d="M132.5 0L131.825 1.82477L130 2.5L131.825 3.17523L132.5 5L133.175 3.17523L135 2.5L133.175 1.82477L132.5 0Z" fill="#000000" fill-opacity="1.000000" fill-rule="evenodd"/>
</svg>
