<svg width="60.000000" height="60.000000" viewBox="0 0 60 60" fill="none" xmlns="http://www.w3.org/2000/svg" xmlns:xlink="http://www.w3.org/1999/xlink">
	<desc>
			Created with Pixso.
	</desc>
	<defs>
		<clipPath id="clip1412_100">
			<rect id="Frame 3" rx="2.000000" width="60.000000" height="60.000000" fill="white" fill-opacity="0"/>
		</clipPath>
	</defs>
	<rect id="Frame 3" rx="2.000000" width="60.000000" height="60.000000" fill="#D9D9D9" fill-opacity="0"/>
	<g clip-path="url(#clip1412_100)">
		<rect id="Social Icons" width="24.000053" height="24.000000" transform="translate(18.000000 18.000000)" fill="#FFFFFF" fill-opacity="0"/>
		<path id="Vector" d="M18 42L19.687 35.837C18.646 34.033 18.0991 31.988 18.1001 29.891C18.103 23.335 23.438 18 29.9932 18C33.1738 18.001 36.1602 19.24 38.4058 21.488C40.6509 23.736 41.8872 26.724 41.8862 29.902C41.8828 36.459 36.5479 41.794 29.9932 41.794C28.0029 41.793 26.042 41.294 24.3052 40.346L18 42ZM24.5972 38.193C26.2729 39.188 27.873 39.784 29.9888 39.785C35.437 39.785 39.875 35.351 39.8779 29.9C39.8799 24.438 35.4629 20.01 29.9971 20.008C24.5449 20.008 20.1099 24.442 20.1079 29.892C20.1069 32.117 20.7588 33.783 21.854 35.526L20.855 39.174L24.5972 38.193ZM35.9839 32.729C35.9102 32.605 35.7119 32.531 35.4141 32.382C35.1172 32.233 33.6558 31.514 33.3828 31.415C33.1108 31.316 32.9131 31.266 32.7139 31.564C32.5161 31.861 31.9458 32.531 31.7729 32.729C31.6001 32.927 31.4258 32.952 31.1289 32.803C30.832 32.654 29.874 32.341 28.7388 31.328C27.856 30.54 27.2588 29.567 27.0859 29.269C26.9131 28.972 27.0679 28.811 27.2158 28.663C27.3501 28.53 27.5132 28.316 27.6621 28.142C27.813 27.97 27.8618 27.846 27.9619 27.647C28.061 27.449 28.0122 27.275 27.937 27.126C27.8618 26.978 27.2681 25.515 27.021 24.92C26.7788 24.341 26.5342 24.419 26.3521 24.41L25.7822 24.4C25.584 24.4 25.2622 24.474 24.9902 24.772C24.7178 25.07 23.9502 25.788 23.9502 27.251C23.9502 28.714 25.0151 30.127 25.1631 30.325C25.312 30.523 27.2578 33.525 30.2388 34.812C30.9482 35.118 31.502 35.301 31.9331 35.438C32.645 35.664 33.293 35.632 33.8052 35.556C34.376 35.471 35.563 34.837 35.811 34.143C36.0591 33.448 36.0591 32.853 35.9839 32.729Z" fill="#000000" fill-opacity="1.000000" fill-rule="nonzero"/>
	</g>
</svg>
